<svg width="102" height="55" viewBox="0 0 102 55" fill="none" xmlns="http://www.w3.org/2000/svg">
<g clip-path="url(#clip0_43_246)">
<ellipse cx="50.6348" cy="25.9396" rx="20.752" ry="20.2653" fill="#ADFFC4"/>
<path fill-rule="evenodd" clip-rule="evenodd" d="M48.4849 49.8364C42.9206 49.3971 37.6857 47.083 33.676 43.2901C29.6663 39.4972 27.1311 34.4612 26.5044 29.0442C25.2427 29.4495 23.9644 29.9278 22.6694 30.4628L24.7612 40.5711L0 24.3183L16.3691 0L18.5024 10.3029C23.1567 9.54316 27.9175 9.66978 32.5225 10.6758C36.3952 6.45324 41.703 3.74349 47.4639 3.0479C48.4492 2.92293 49.442 2.86335 50.4355 2.86957C52.4605 2.89854 54.476 3.14593 56.4453 3.60722C61.6012 4.89761 66.1737 7.82029 69.4479 11.9182C72.722 16.0161 74.5131 21.0581 74.541 26.2557C76.1739 25.7656 77.7783 25.1892 79.3472 24.5291L77.2388 14.4289L102 30.6411L85.6309 54.9595L83.4976 44.6485C77.9412 45.5946 72.2343 45.239 66.8462 43.6109C63.9239 46.2713 60.3694 48.1795 56.5034 49.1636C53.8839 49.8009 51.1773 50.028 48.4849 49.8364ZM52.7681 31.6949C52.7809 31.2502 52.696 30.8079 52.519 30.3979C52.343 30.0437 52.0737 29.7416 51.7388 29.5225C51.2903 29.2312 50.8118 28.9867 50.311 28.7929C49.0383 28.264 47.7943 27.6715 46.584 27.0177C45.5869 26.4784 44.7339 25.7175 44.0938 24.7966C43.4311 23.7558 43.1069 22.5434 43.1641 21.3191C43.1386 20.1287 43.483 18.9587 44.1519 17.9632C44.828 16.9911 45.7679 16.2221 46.8662 15.7421C47.7958 15.3365 48.7897 15.0898 49.8047 15.0125V12.4996H52.436V15.0774C53.3034 15.1956 54.1449 15.453 54.9263 15.8394C56.0639 16.401 57.012 17.2705 57.6572 18.3441C58.3417 19.5385 58.683 20.8912 58.645 22.2594H52.9092C53.0127 21.4411 52.793 20.6149 52.2949 19.9492C52.0992 19.7461 51.8623 19.585 51.5994 19.4761C51.3364 19.3673 51.0531 19.313 50.7676 19.3169C50.3787 19.3003 49.9938 19.3992 49.6636 19.6006C49.3809 19.7862 49.1636 20.0522 49.041 20.3626C48.9051 20.6865 48.8374 21.0339 48.8418 21.3839C48.8325 21.7482 48.9121 22.1095 49.0742 22.4377C49.2605 22.7625 49.522 23.0401 49.8379 23.2483C50.3082 23.5647 50.8085 23.8361 51.332 24.059C52.5788 24.6139 53.7902 25.242 54.9595 25.9396C55.9763 26.4978 56.8505 27.2738 57.5161 28.2093C58.181 29.2464 58.5081 30.4562 58.4541 31.6787C58.5092 32.869 58.1863 34.0468 57.5295 35.051C56.8727 36.0551 55.9142 36.8365 54.7852 37.2881C53.9214 37.6494 53.0059 37.8791 52.0708 37.969V40.4009H49.4229V37.969C48.8626 37.9018 48.3078 37.7961 47.7627 37.6529C46.7791 37.3946 45.8531 36.9603 45.0317 36.3721C44.1862 35.7536 43.5104 34.9405 43.0645 34.0052C42.5318 32.8672 42.2761 31.6242 42.3174 30.3736H47.9951C47.9796 30.9096 48.0582 31.4442 48.2275 31.9543C48.3511 32.3331 48.5612 32.6796 48.8418 32.9676C49.0896 33.2149 49.394 33.401 49.73 33.5107C50.0709 33.6287 50.4308 33.6864 50.7925 33.6809C51.1977 33.6985 51.6 33.6059 51.9546 33.4134C52.24 33.2422 52.4657 32.9907 52.6021 32.692C52.7402 32.3826 52.8108 32.0486 52.8096 31.7111L52.7681 31.6949ZM52.4609 45.9536L51.9795 45.9941C51.4565 45.9941 50.9336 46.0508 50.4023 46.0508C45.8799 46.061 41.4861 44.5812 37.9316 41.8507C34.377 39.1202 31.8695 35.2987 30.8145 31.0042C29.7595 26.7096 30.2186 22.1931 32.1177 18.185C34.0168 14.1768 37.2449 10.9114 41.2798 8.91673L41.6948 8.71408C44.3359 7.47455 47.2226 6.81404 50.1526 6.77883C53.0826 6.74362 55.9851 7.33456 58.6566 8.51025C61.3281 9.68594 63.704 11.4179 65.6178 13.5848C67.5316 15.7517 68.937 18.3011 69.7355 21.0544C70.534 23.8076 70.7063 26.698 70.2403 29.5231C69.7743 32.3483 68.6813 35.0397 67.0379 37.4088C65.3945 39.7779 63.2404 41.7674 60.7267 43.2379C58.2129 44.7083 55.4003 45.6241 52.4858 45.9212L52.4609 45.9536Z" fill="#FF9E9E"/>
</g>
<defs>
<clipPath id="clip0_43_246">
<rect width="102" height="55" fill="white"/>
</clipPath>
</defs>
</svg>
